<mxfile host="app.diagrams.net" modified="2023-06-07T14:24:38.710Z" agent="Mozilla/5.0 (X11; Ubuntu; Linux x86_64; rv:109.0) Gecko/20100101 Firefox/112.0" etag="vDy2N6Oy10CMlyHraKdm" version="21.3.7" type="device">
  <diagram name="proxy-service" id="_EnGJVChPbwfAmqqiPT2">
    <mxGraphModel dx="1360" dy="795" grid="1" gridSize="10" guides="1" tooltips="1" connect="1" arrows="1" fold="1" page="1" pageScale="1" pageWidth="850" pageHeight="1100" math="0" shadow="0">
      <root>
        <mxCell id="0" />
        <mxCell id="1" parent="0" />
        <mxCell id="cNh8NexcxSdfIfK-n4i8-1" value="Node - Manager" style="rounded=1;whiteSpace=wrap;html=1;arcSize=7;align=left;verticalAlign=top;spacingLeft=35;fontSize=20;fontStyle=4" vertex="1" parent="1">
          <mxGeometry x="20" y="310" width="280" height="180" as="geometry" />
        </mxCell>
        <mxCell id="cNh8NexcxSdfIfK-n4i8-2" value="hirte" style="rounded=0;whiteSpace=wrap;html=1;fontSize=18;" vertex="1" parent="1">
          <mxGeometry x="90" y="385" width="140" height="50" as="geometry" />
        </mxCell>
        <mxCell id="cNh8NexcxSdfIfK-n4i8-3" value="Managed Node: bar" style="rounded=1;whiteSpace=wrap;html=1;arcSize=7;align=left;verticalAlign=top;spacingLeft=35;fontSize=20;fontStyle=4" vertex="1" parent="1">
          <mxGeometry x="500" y="100" width="610" height="270" as="geometry" />
        </mxCell>
        <mxCell id="cNh8NexcxSdfIfK-n4i8-4" value="dbus&lt;br style=&quot;font-size: 13px;&quot;&gt;(unix domain)" style="edgeStyle=orthogonalEdgeStyle;rounded=0;orthogonalLoop=1;jettySize=auto;html=1;entryX=0.5;entryY=1;entryDx=0;entryDy=0;strokeWidth=2;fontSize=13;" edge="1" parent="1" source="cNh8NexcxSdfIfK-n4i8-5" target="cNh8NexcxSdfIfK-n4i8-7">
          <mxGeometry relative="1" as="geometry" />
        </mxCell>
        <mxCell id="cNh8NexcxSdfIfK-n4i8-5" value="hirte-agent" style="rounded=0;whiteSpace=wrap;html=1;fontSize=18;" vertex="1" parent="1">
          <mxGeometry x="550" y="290" width="140" height="50" as="geometry" />
        </mxCell>
        <mxCell id="cNh8NexcxSdfIfK-n4i8-6" style="edgeStyle=orthogonalEdgeStyle;rounded=0;orthogonalLoop=1;jettySize=auto;html=1;entryX=0;entryY=0.5;entryDx=0;entryDy=0;strokeWidth=2;fillColor=#dae8fc;strokeColor=#000000;" edge="1" parent="1" source="cNh8NexcxSdfIfK-n4i8-7" target="cNh8NexcxSdfIfK-n4i8-8">
          <mxGeometry relative="1" as="geometry" />
        </mxCell>
        <mxCell id="cNh8NexcxSdfIfK-n4i8-7" value="systemd" style="rounded=0;whiteSpace=wrap;html=1;fontSize=18;" vertex="1" parent="1">
          <mxGeometry x="550" y="160" width="140" height="50" as="geometry" />
        </mxCell>
        <mxCell id="cNh8NexcxSdfIfK-n4i8-8" value="services" style="rounded=0;whiteSpace=wrap;html=1;fontSize=18;" vertex="1" parent="1">
          <mxGeometry x="810" y="160" width="140" height="50" as="geometry" />
        </mxCell>
        <mxCell id="cNh8NexcxSdfIfK-n4i8-9" value="Managed Node: foo" style="rounded=1;whiteSpace=wrap;html=1;arcSize=7;align=left;verticalAlign=top;spacingLeft=35;fontSize=20;fontStyle=4" vertex="1" parent="1">
          <mxGeometry x="500" y="480" width="610" height="280" as="geometry" />
        </mxCell>
        <mxCell id="cNh8NexcxSdfIfK-n4i8-10" value="dbus&lt;br style=&quot;font-size: 13px;&quot;&gt;(unix domain)" style="edgeStyle=orthogonalEdgeStyle;rounded=0;orthogonalLoop=1;jettySize=auto;html=1;entryX=0.5;entryY=0;entryDx=0;entryDy=0;strokeWidth=2;fontSize=13;" edge="1" parent="1" source="cNh8NexcxSdfIfK-n4i8-11" target="cNh8NexcxSdfIfK-n4i8-13">
          <mxGeometry relative="1" as="geometry" />
        </mxCell>
        <mxCell id="cNh8NexcxSdfIfK-n4i8-11" value="hirte-agent" style="rounded=0;whiteSpace=wrap;html=1;fontSize=18;" vertex="1" parent="1">
          <mxGeometry x="550" y="540" width="140" height="50" as="geometry" />
        </mxCell>
        <mxCell id="cNh8NexcxSdfIfK-n4i8-12" style="edgeStyle=orthogonalEdgeStyle;rounded=0;orthogonalLoop=1;jettySize=auto;html=1;entryX=0;entryY=0.5;entryDx=0;entryDy=0;strokeWidth=2;" edge="1" parent="1" target="cNh8NexcxSdfIfK-n4i8-14">
          <mxGeometry relative="1" as="geometry">
            <mxPoint x="690" y="705" as="sourcePoint" />
          </mxGeometry>
        </mxCell>
        <mxCell id="cNh8NexcxSdfIfK-n4i8-13" value="systemd" style="rounded=0;whiteSpace=wrap;html=1;fontSize=18;" vertex="1" parent="1">
          <mxGeometry x="550" y="680" width="140" height="50" as="geometry" />
        </mxCell>
        <mxCell id="cNh8NexcxSdfIfK-n4i8-14" value="services" style="rounded=0;whiteSpace=wrap;html=1;fontSize=18;" vertex="1" parent="1">
          <mxGeometry x="853.5" y="680" width="140" height="50" as="geometry" />
        </mxCell>
        <mxCell id="cNh8NexcxSdfIfK-n4i8-15" value="peer dbus&lt;br style=&quot;font-size: 13px;&quot;&gt;(TCP/IP)" style="edgeStyle=orthogonalEdgeStyle;rounded=0;orthogonalLoop=1;jettySize=auto;html=1;entryX=0;entryY=0.5;entryDx=0;entryDy=0;strokeWidth=2;startArrow=classic;startFill=1;fontSize=13;exitX=1;exitY=0.5;exitDx=0;exitDy=0;" edge="1" parent="1" source="cNh8NexcxSdfIfK-n4i8-2" target="cNh8NexcxSdfIfK-n4i8-5">
          <mxGeometry relative="1" as="geometry" />
        </mxCell>
        <mxCell id="cNh8NexcxSdfIfK-n4i8-16" value="peer dbus&lt;br style=&quot;font-size: 13px;&quot;&gt;(TCP/IP)" style="edgeStyle=orthogonalEdgeStyle;rounded=0;orthogonalLoop=1;jettySize=auto;html=1;entryX=0;entryY=0.5;entryDx=0;entryDy=0;strokeWidth=2;startArrow=classic;startFill=1;fontSize=13;exitX=1;exitY=0.5;exitDx=0;exitDy=0;" edge="1" parent="1" source="cNh8NexcxSdfIfK-n4i8-2" target="cNh8NexcxSdfIfK-n4i8-11">
          <mxGeometry relative="1" as="geometry" />
        </mxCell>
        <mxCell id="cNh8NexcxSdfIfK-n4i8-17" value="needs-db.service" style="rounded=0;whiteSpace=wrap;html=1;fontSize=18;" vertex="1" parent="1">
          <mxGeometry x="878.5" y="670" width="151.5" height="50" as="geometry" />
        </mxCell>
        <mxCell id="cNh8NexcxSdfIfK-n4i8-18" value="db.service" style="rounded=0;whiteSpace=wrap;html=1;fontSize=18;" vertex="1" parent="1">
          <mxGeometry x="847.5" y="290" width="140" height="50" as="geometry" />
        </mxCell>
        <mxCell id="cNh8NexcxSdfIfK-n4i8-19" value="requires" style="edgeStyle=orthogonalEdgeStyle;rounded=0;orthogonalLoop=1;jettySize=auto;html=1;entryX=0.25;entryY=1;entryDx=0;entryDy=0;strokeWidth=2;fillColor=#dae8fc;strokeColor=#000000;exitX=0.5;exitY=0;exitDx=0;exitDy=0;fontSize=14;" edge="1" parent="1" source="cNh8NexcxSdfIfK-n4i8-17" target="cNh8NexcxSdfIfK-n4i8-21">
          <mxGeometry relative="1" as="geometry">
            <mxPoint x="905" y="670" as="sourcePoint" />
            <mxPoint x="905" y="220" as="targetPoint" />
          </mxGeometry>
        </mxCell>
        <mxCell id="cNh8NexcxSdfIfK-n4i8-20" style="edgeStyle=orthogonalEdgeStyle;rounded=0;orthogonalLoop=1;jettySize=auto;html=1;entryX=1;entryY=0.5;entryDx=0;entryDy=0;fillColor=#dae8fc;strokeColor=#000000;strokeWidth=2;" edge="1" parent="1" source="cNh8NexcxSdfIfK-n4i8-21" target="cNh8NexcxSdfIfK-n4i8-29">
          <mxGeometry relative="1" as="geometry" />
        </mxCell>
        <mxCell id="cNh8NexcxSdfIfK-n4i8-21" value="hirte-proxy@.service" style="rounded=0;whiteSpace=wrap;html=1;fontSize=18;fillColor=#dae8fc;strokeColor=#6c8ebf;" vertex="1" parent="1">
          <mxGeometry x="900" y="540" width="195" height="50" as="geometry" />
        </mxCell>
        <mxCell id="cNh8NexcxSdfIfK-n4i8-22" value="requires" style="edgeStyle=orthogonalEdgeStyle;rounded=0;orthogonalLoop=1;jettySize=auto;html=1;entryX=0.5;entryY=0;entryDx=0;entryDy=0;strokeWidth=2;fillColor=#dae8fc;strokeColor=#000000;fontSize=14;" edge="1" parent="1" source="cNh8NexcxSdfIfK-n4i8-23" target="cNh8NexcxSdfIfK-n4i8-18">
          <mxGeometry relative="1" as="geometry" />
        </mxCell>
        <mxCell id="cNh8NexcxSdfIfK-n4i8-23" value="hirte-dep@.service" style="rounded=0;whiteSpace=wrap;html=1;fontSize=18;fillColor=#dae8fc;strokeColor=#6c8ebf;" vertex="1" parent="1">
          <mxGeometry x="820" y="170" width="195" height="50" as="geometry" />
        </mxCell>
        <mxCell id="cNh8NexcxSdfIfK-n4i8-24" style="edgeStyle=orthogonalEdgeStyle;rounded=0;orthogonalLoop=1;jettySize=auto;html=1;entryX=0.75;entryY=0;entryDx=0;entryDy=0;strokeWidth=2;endArrow=none;endFill=0;dashed=1;exitX=0;exitY=0;exitDx=270;exitDy=28.5;exitPerimeter=0;" edge="1" parent="1" source="cNh8NexcxSdfIfK-n4i8-25" target="cNh8NexcxSdfIfK-n4i8-21">
          <mxGeometry relative="1" as="geometry" />
        </mxCell>
        <mxCell id="cNh8NexcxSdfIfK-n4i8-25" value="hirte-proxy@bar_db.service" style="shape=note;whiteSpace=wrap;html=1;backgroundOutline=1;darkOpacity=0.05;align=left;spacingLeft=8;fontSize=15;size=17;fillColor=#fff2cc;strokeColor=#d6b656;" vertex="1" parent="1">
          <mxGeometry x="745" y="410" width="270" height="40" as="geometry" />
        </mxCell>
        <mxCell id="cNh8NexcxSdfIfK-n4i8-26" style="edgeStyle=orthogonalEdgeStyle;rounded=0;orthogonalLoop=1;jettySize=auto;html=1;entryX=0.75;entryY=0;entryDx=0;entryDy=0;dashed=1;endArrow=none;endFill=0;exitX=0;exitY=0;exitDx=210;exitDy=28.5;exitPerimeter=0;strokeWidth=2;" edge="1" parent="1" source="cNh8NexcxSdfIfK-n4i8-27" target="cNh8NexcxSdfIfK-n4i8-23">
          <mxGeometry relative="1" as="geometry" />
        </mxCell>
        <mxCell id="cNh8NexcxSdfIfK-n4i8-27" value="hirte-dep@db.service" style="shape=note;whiteSpace=wrap;html=1;backgroundOutline=1;darkOpacity=0.05;align=left;spacingLeft=8;fontSize=15;size=17;fillColor=#fff2cc;strokeColor=#d6b656;" vertex="1" parent="1">
          <mxGeometry x="730" y="30" width="210" height="40" as="geometry" />
        </mxCell>
        <mxCell id="cNh8NexcxSdfIfK-n4i8-28" style="edgeStyle=orthogonalEdgeStyle;rounded=0;orthogonalLoop=1;jettySize=auto;html=1;entryX=1;entryY=0.5;entryDx=0;entryDy=0;strokeWidth=2;" edge="1" parent="1" source="cNh8NexcxSdfIfK-n4i8-29" target="cNh8NexcxSdfIfK-n4i8-11">
          <mxGeometry relative="1" as="geometry" />
        </mxCell>
        <mxCell id="cNh8NexcxSdfIfK-n4i8-29" value="hirte-proxy" style="rounded=0;whiteSpace=wrap;html=1;fontSize=18;fillColor=#dae8fc;strokeColor=#6c8ebf;" vertex="1" parent="1">
          <mxGeometry x="737.5" y="540" width="110" height="50" as="geometry" />
        </mxCell>
      </root>
    </mxGraphModel>
  </diagram>
</mxfile>
